<mxfile host="app.diagrams.net" agent="Mozilla/5.0 (Windows NT 10.0; Win64; x64) AppleWebKit/537.36 (KHTML, like Gecko) Chrome/132.0.0.0 Safari/537.36" version="26.0.10">
  <diagram id="R2lEEEUBdFMjLlhIrx00" name="Page-1">
    <mxGraphModel dx="1950" dy="605" grid="1" gridSize="10" guides="1" tooltips="1" connect="1" arrows="1" fold="1" page="1" pageScale="1" pageWidth="850" pageHeight="1100" math="0" shadow="0" extFonts="Permanent Marker^https://fonts.googleapis.com/css?family=Permanent+Marker">
      <root>
        <mxCell id="0" />
        <mxCell id="1" parent="0" />
        <mxCell id="P8gEnFv1B-w37EKTStKA-3" value="" style="rhombus;whiteSpace=wrap;html=1;fillColor=#dae8fc;strokeColor=#6c8ebf;" vertex="1" parent="1">
          <mxGeometry x="320" y="140" width="80" height="80" as="geometry" />
        </mxCell>
        <mxCell id="P8gEnFv1B-w37EKTStKA-4" value="" style="rounded=1;whiteSpace=wrap;html=1;fillColor=#ffcc99;strokeColor=#36393d;" vertex="1" parent="1">
          <mxGeometry x="588" y="150" width="120" height="60" as="geometry" />
        </mxCell>
        <mxCell id="P8gEnFv1B-w37EKTStKA-5" value="" style="rounded=1;whiteSpace=wrap;html=1;fillColor=#ffcc99;strokeColor=#36393d;" vertex="1" parent="1">
          <mxGeometry x="39" y="150" width="120" height="60" as="geometry" />
        </mxCell>
        <mxCell id="P8gEnFv1B-w37EKTStKA-11" value="" style="line;strokeWidth=1;rotatable=0;dashed=0;labelPosition=right;align=left;verticalAlign=middle;spacingTop=0;spacingLeft=6;points=[];portConstraint=eastwest;" vertex="1" parent="1">
          <mxGeometry x="160" y="175" width="160" height="10" as="geometry" />
        </mxCell>
        <mxCell id="P8gEnFv1B-w37EKTStKA-14" value="" style="line;strokeWidth=1;rotatable=0;dashed=0;labelPosition=right;align=left;verticalAlign=middle;spacingTop=0;spacingLeft=6;points=[];portConstraint=eastwest;" vertex="1" parent="1">
          <mxGeometry x="400" y="175" width="190" height="10" as="geometry" />
        </mxCell>
        <mxCell id="P8gEnFv1B-w37EKTStKA-16" value="" style="rhombus;whiteSpace=wrap;html=1;" vertex="1" parent="1">
          <mxGeometry x="210" y="290" width="60" height="50" as="geometry" />
        </mxCell>
        <mxCell id="P8gEnFv1B-w37EKTStKA-17" value="" style="endArrow=none;html=1;rounded=0;fontSize=12;startSize=8;endSize=8;curved=1;exitX=0;exitY=0;exitDx=0;exitDy=0;" edge="1" parent="1" source="P8gEnFv1B-w37EKTStKA-16">
          <mxGeometry width="50" height="50" relative="1" as="geometry">
            <mxPoint x="75" y="260" as="sourcePoint" />
            <mxPoint x="125" y="210" as="targetPoint" />
          </mxGeometry>
        </mxCell>
        <mxCell id="P8gEnFv1B-w37EKTStKA-19" value="" style="endArrow=none;html=1;rounded=0;fontSize=12;startSize=8;endSize=8;curved=1;exitX=1;exitY=0.5;exitDx=0;exitDy=0;" edge="1" parent="1" source="P8gEnFv1B-w37EKTStKA-16">
          <mxGeometry width="50" height="50" relative="1" as="geometry">
            <mxPoint x="280" y="320" as="sourcePoint" />
            <mxPoint x="400" y="315" as="targetPoint" />
          </mxGeometry>
        </mxCell>
        <mxCell id="P8gEnFv1B-w37EKTStKA-20" value="" style="rounded=1;whiteSpace=wrap;html=1;fillColor=#ffcc99;strokeColor=#36393d;" vertex="1" parent="1">
          <mxGeometry x="399" y="285" width="120" height="60" as="geometry" />
        </mxCell>
        <mxCell id="P8gEnFv1B-w37EKTStKA-21" value="BOOK" style="text;strokeColor=none;fillColor=none;html=1;align=center;verticalAlign=middle;whiteSpace=wrap;rounded=0;fontSize=16;" vertex="1" parent="1">
          <mxGeometry x="70" y="165" width="60" height="30" as="geometry" />
        </mxCell>
        <mxCell id="P8gEnFv1B-w37EKTStKA-22" value="USER" style="text;strokeColor=#36393d;fillColor=#ffcc99;html=1;align=center;verticalAlign=middle;whiteSpace=wrap;rounded=0;fontSize=16;" vertex="1" parent="1">
          <mxGeometry x="619" y="165" width="60" height="30" as="geometry" />
        </mxCell>
        <mxCell id="P8gEnFv1B-w37EKTStKA-23" value="Borrowed by" style="text;strokeColor=none;fillColor=none;html=1;align=center;verticalAlign=middle;whiteSpace=wrap;rounded=0;fontSize=16;" vertex="1" parent="1">
          <mxGeometry x="345" y="180" width="30" height="15" as="geometry" />
        </mxCell>
        <mxCell id="P8gEnFv1B-w37EKTStKA-24" value="supp.by" style="text;strokeColor=#36393d;fillColor=#ffcc99;html=1;align=center;verticalAlign=middle;whiteSpace=wrap;rounded=0;fontSize=16;" vertex="1" parent="1">
          <mxGeometry x="209" y="300" width="60" height="30" as="geometry" />
        </mxCell>
        <mxCell id="P8gEnFv1B-w37EKTStKA-25" value="Supplier" style="text;strokeColor=none;fillColor=none;html=1;align=center;verticalAlign=middle;whiteSpace=wrap;rounded=0;fontSize=16;" vertex="1" parent="1">
          <mxGeometry x="430" y="300" width="60" height="30" as="geometry" />
        </mxCell>
        <mxCell id="P8gEnFv1B-w37EKTStKA-26" value="&lt;div style=&quot;text-align: center;&quot;&gt;&lt;span style=&quot;text-align: start; background-color: transparent;&quot;&gt;Acc. no.&lt;/span&gt;&lt;span style=&quot;color: light-dark(rgba(0, 0, 0, 0), rgb(237, 237, 237)); font-family: monospace; font-size: 0px; text-align: start; text-wrap-mode: nowrap; background-color: transparent;&quot;&gt;%3CmxGraphModel%3E%3Croot%3E%3CmxCell%20id%3D%220%22%2F%3E%3CmxCell%20id%3D%221%22%20parent%3D%220%22%2F%3E%3CmxCell%20id%3D%222%22%20value%3D%22%22%20style%3D%22line%3BstrokeWidth%3D1%3Brotatable%3D0%3Bdashed%3D0%3BlabelPosition%3Dright%3Balign%3Dleft%3BverticalAlign%3Dmiddle%3BspacingTop%3D0%3BspacingLeft%3D6%3Bpoints%3D%5B%5D%3BportConstraint%3Deastwest%3B%22%20vertex%3D%221%22%20parent%3D%221%22%3E%3CmxGeometry%20x%3D%22160%22%20y%3D%22175%22%20width%3D%22160%22%20height%3D%2210%22%20as%3D%22geometry%22%2F%3E%3C%2FmxCell%3E%3C%2Froot%3E%3C%2FmxGraphModel%&lt;/span&gt;&lt;/div&gt;" style="ellipse;whiteSpace=wrap;html=1;align=center;dashed=1;fillColor=#e1d5e7;strokeColor=#9673a6;" vertex="1" parent="1">
          <mxGeometry x="100" y="40" width="80" height="30" as="geometry" />
        </mxCell>
        <mxCell id="P8gEnFv1B-w37EKTStKA-27" value="Year of Pub." style="ellipse;whiteSpace=wrap;html=1;align=center;dashed=1;fillColor=#e1d5e7;strokeColor=#9673a6;" vertex="1" parent="1">
          <mxGeometry x="-100" y="165" width="80" height="30" as="geometry" />
        </mxCell>
        <mxCell id="P8gEnFv1B-w37EKTStKA-28" value="Title" style="ellipse;whiteSpace=wrap;html=1;align=center;dashed=1;fillColor=#e1d5e7;strokeColor=#9673a6;" vertex="1" parent="1">
          <mxGeometry x="180" y="80" width="80" height="30" as="geometry" />
        </mxCell>
        <mxCell id="P8gEnFv1B-w37EKTStKA-29" value="Author" style="ellipse;whiteSpace=wrap;html=1;align=center;dashed=1;fillColor=#e1d5e7;strokeColor=#9673a6;" vertex="1" parent="1">
          <mxGeometry x="-20" y="70" width="80" height="30" as="geometry" />
        </mxCell>
        <mxCell id="P8gEnFv1B-w37EKTStKA-30" value="Date of Supp." style="ellipse;whiteSpace=wrap;html=1;align=center;dashed=1;fillColor=#f5f5f5;fontColor=#333333;strokeColor=#666666;" vertex="1" parent="1">
          <mxGeometry x="200" y="410" width="80" height="30" as="geometry" />
        </mxCell>
        <mxCell id="P8gEnFv1B-w37EKTStKA-31" value="Date of Issue" style="ellipse;whiteSpace=wrap;html=1;align=center;dashed=1;fillColor=#ffff88;strokeColor=#36393d;" vertex="1" parent="1">
          <mxGeometry x="320" y="60" width="80" height="30" as="geometry" />
        </mxCell>
        <mxCell id="P8gEnFv1B-w37EKTStKA-32" value="Supp. ID" style="ellipse;whiteSpace=wrap;html=1;align=center;dashed=1;fillColor=#ffe6cc;strokeColor=#d79b00;" vertex="1" parent="1">
          <mxGeometry x="630" y="290" width="80" height="30" as="geometry" />
        </mxCell>
        <mxCell id="P8gEnFv1B-w37EKTStKA-33" value="Address" style="ellipse;whiteSpace=wrap;html=1;align=center;dashed=1;fillColor=#ffe6cc;strokeColor=#d79b00;" vertex="1" parent="1">
          <mxGeometry x="550" y="390" width="80" height="30" as="geometry" />
        </mxCell>
        <mxCell id="P8gEnFv1B-w37EKTStKA-34" value="Name" style="ellipse;whiteSpace=wrap;html=1;align=center;dashed=1;fillColor=#ffe6cc;strokeColor=#d79b00;" vertex="1" parent="1">
          <mxGeometry x="402" y="410" width="80" height="30" as="geometry" />
        </mxCell>
        <mxCell id="P8gEnFv1B-w37EKTStKA-35" value="Address" style="ellipse;whiteSpace=wrap;html=1;align=center;dashed=1;fillColor=#d5e8d4;strokeColor=#82b366;" vertex="1" parent="1">
          <mxGeometry x="680" y="90" width="80" height="30" as="geometry" />
        </mxCell>
        <mxCell id="P8gEnFv1B-w37EKTStKA-36" value="Name" style="ellipse;whiteSpace=wrap;html=1;align=center;dashed=1;fillColor=#d5e8d4;strokeColor=#82b366;" vertex="1" parent="1">
          <mxGeometry x="620" y="40" width="80" height="30" as="geometry" />
        </mxCell>
        <mxCell id="P8gEnFv1B-w37EKTStKA-37" value="Card no." style="ellipse;whiteSpace=wrap;html=1;align=center;dashed=1;fillColor=#d5e8d4;strokeColor=#82b366;" vertex="1" parent="1">
          <mxGeometry x="510" y="80" width="80" height="30" as="geometry" />
        </mxCell>
        <mxCell id="P8gEnFv1B-w37EKTStKA-40" value="" style="endArrow=none;html=1;rounded=0;fontSize=12;startSize=8;endSize=8;curved=1;exitX=0.5;exitY=0;exitDx=0;exitDy=0;" edge="1" parent="1" source="P8gEnFv1B-w37EKTStKA-4">
          <mxGeometry width="50" height="50" relative="1" as="geometry">
            <mxPoint x="610" y="120" as="sourcePoint" />
            <mxPoint x="660" y="70" as="targetPoint" />
            <Array as="points" />
          </mxGeometry>
        </mxCell>
        <mxCell id="P8gEnFv1B-w37EKTStKA-41" value="" style="endArrow=none;html=1;rounded=0;fontSize=12;startSize=8;endSize=8;curved=1;exitX=0.367;exitY=-0.017;exitDx=0;exitDy=0;exitPerimeter=0;" edge="1" parent="1">
          <mxGeometry width="50" height="50" relative="1" as="geometry">
            <mxPoint x="637.04" y="148.98000000000002" as="sourcePoint" />
            <mxPoint x="583" y="100" as="targetPoint" />
          </mxGeometry>
        </mxCell>
        <mxCell id="P8gEnFv1B-w37EKTStKA-42" value="" style="endArrow=none;html=1;rounded=0;fontSize=12;startSize=8;endSize=8;curved=1;exitX=0.5;exitY=0;exitDx=0;exitDy=0;entryX=0.5;entryY=1;entryDx=0;entryDy=0;" edge="1" parent="1" source="P8gEnFv1B-w37EKTStKA-4" target="P8gEnFv1B-w37EKTStKA-35">
          <mxGeometry width="50" height="50" relative="1" as="geometry">
            <mxPoint x="660" y="160" as="sourcePoint" />
            <mxPoint x="670" y="80" as="targetPoint" />
            <Array as="points" />
          </mxGeometry>
        </mxCell>
        <mxCell id="P8gEnFv1B-w37EKTStKA-43" value="" style="endArrow=none;html=1;rounded=0;fontSize=12;startSize=8;endSize=8;curved=1;exitX=1;exitY=0.5;exitDx=0;exitDy=0;entryX=0;entryY=0.5;entryDx=0;entryDy=0;" edge="1" parent="1" source="P8gEnFv1B-w37EKTStKA-20" target="P8gEnFv1B-w37EKTStKA-32">
          <mxGeometry width="50" height="50" relative="1" as="geometry">
            <mxPoint x="560" y="330" as="sourcePoint" />
            <mxPoint x="570" y="250" as="targetPoint" />
            <Array as="points" />
          </mxGeometry>
        </mxCell>
        <mxCell id="P8gEnFv1B-w37EKTStKA-44" value="" style="endArrow=none;html=1;rounded=0;fontSize=12;startSize=8;endSize=8;curved=1;exitX=0;exitY=0;exitDx=0;exitDy=0;" edge="1" parent="1" source="P8gEnFv1B-w37EKTStKA-33">
          <mxGeometry width="50" height="50" relative="1" as="geometry">
            <mxPoint x="500" y="420" as="sourcePoint" />
            <mxPoint x="520" y="350" as="targetPoint" />
            <Array as="points" />
          </mxGeometry>
        </mxCell>
        <mxCell id="P8gEnFv1B-w37EKTStKA-45" value="" style="endArrow=none;html=1;rounded=0;fontSize=12;startSize=8;endSize=8;curved=1;exitX=0.5;exitY=0;exitDx=0;exitDy=0;entryX=0.408;entryY=0.956;entryDx=0;entryDy=0;entryPerimeter=0;" edge="1" parent="1" target="P8gEnFv1B-w37EKTStKA-20">
          <mxGeometry width="50" height="50" relative="1" as="geometry">
            <mxPoint x="440" y="410" as="sourcePoint" />
            <mxPoint x="450" y="360" as="targetPoint" />
            <Array as="points" />
          </mxGeometry>
        </mxCell>
        <mxCell id="P8gEnFv1B-w37EKTStKA-46" value="" style="endArrow=none;html=1;rounded=0;fontSize=12;startSize=8;endSize=8;curved=1;exitX=0.5;exitY=0;exitDx=0;exitDy=0;entryX=0.408;entryY=0.956;entryDx=0;entryDy=0;entryPerimeter=0;" edge="1" parent="1" source="P8gEnFv1B-w37EKTStKA-30">
          <mxGeometry width="50" height="50" relative="1" as="geometry">
            <mxPoint x="230" y="408" as="sourcePoint" />
            <mxPoint x="239" y="340" as="targetPoint" />
            <Array as="points" />
          </mxGeometry>
        </mxCell>
        <mxCell id="P8gEnFv1B-w37EKTStKA-47" value="" style="endArrow=none;html=1;rounded=0;fontSize=12;startSize=8;endSize=8;curved=1;exitX=0;exitY=0;exitDx=0;exitDy=0;entryX=0.408;entryY=0.956;entryDx=0;entryDy=0;entryPerimeter=0;" edge="1" parent="1" source="P8gEnFv1B-w37EKTStKA-5">
          <mxGeometry width="50" height="50" relative="1" as="geometry">
            <mxPoint x="10" y="165" as="sourcePoint" />
            <mxPoint x="19" y="97" as="targetPoint" />
            <Array as="points" />
          </mxGeometry>
        </mxCell>
        <mxCell id="P8gEnFv1B-w37EKTStKA-48" value="" style="endArrow=none;html=1;rounded=0;fontSize=12;startSize=8;endSize=8;curved=1;exitX=1;exitY=0.5;exitDx=0;exitDy=0;entryX=0.408;entryY=0.956;entryDx=0;entryDy=0;entryPerimeter=0;" edge="1" parent="1" source="P8gEnFv1B-w37EKTStKA-27">
          <mxGeometry width="50" height="50" relative="1" as="geometry">
            <mxPoint x="31" y="248" as="sourcePoint" />
            <mxPoint x="40" y="180" as="targetPoint" />
            <Array as="points" />
          </mxGeometry>
        </mxCell>
        <mxCell id="P8gEnFv1B-w37EKTStKA-50" value="" style="endArrow=none;html=1;rounded=0;fontSize=12;startSize=8;endSize=8;curved=1;exitX=0.642;exitY=0.05;exitDx=0;exitDy=0;entryX=0.408;entryY=0.956;entryDx=0;entryDy=0;entryPerimeter=0;exitPerimeter=0;" edge="1" parent="1" source="P8gEnFv1B-w37EKTStKA-5">
          <mxGeometry width="50" height="50" relative="1" as="geometry">
            <mxPoint x="121" y="140" as="sourcePoint" />
            <mxPoint x="130" y="72" as="targetPoint" />
            <Array as="points" />
          </mxGeometry>
        </mxCell>
        <mxCell id="P8gEnFv1B-w37EKTStKA-51" value="" style="endArrow=none;html=1;rounded=0;fontSize=12;startSize=8;endSize=8;curved=1;exitX=1;exitY=0;exitDx=0;exitDy=0;entryX=0.408;entryY=0.956;entryDx=0;entryDy=0;entryPerimeter=0;" edge="1" parent="1" source="P8gEnFv1B-w37EKTStKA-5">
          <mxGeometry width="50" height="50" relative="1" as="geometry">
            <mxPoint x="187" y="191" as="sourcePoint" />
            <mxPoint x="200" y="110" as="targetPoint" />
            <Array as="points" />
          </mxGeometry>
        </mxCell>
        <mxCell id="P8gEnFv1B-w37EKTStKA-52" value="" style="endArrow=none;html=1;rounded=0;fontSize=12;startSize=8;endSize=8;curved=1;exitX=0.5;exitY=0;exitDx=0;exitDy=0;entryX=0.5;entryY=1;entryDx=0;entryDy=0;" edge="1" parent="1" source="P8gEnFv1B-w37EKTStKA-3" target="P8gEnFv1B-w37EKTStKA-31">
          <mxGeometry width="50" height="50" relative="1" as="geometry">
            <mxPoint x="170" y="160" as="sourcePoint" />
            <mxPoint x="210" y="120" as="targetPoint" />
            <Array as="points" />
          </mxGeometry>
        </mxCell>
      </root>
    </mxGraphModel>
  </diagram>
</mxfile>
